<?xml version="1.0" standalone="no"?>
<!DOCTYPE svg PUBLIC "-//W3C//DTD SVG 20010904//EN"
 "http://www.w3.org/TR/2001/REC-SVG-20010904/DTD/svg10.dtd">
<svg version="1.0" xmlns="http://www.w3.org/2000/svg"
 width="1024.000000pt" height="1024.000000pt" viewBox="0 0 1024.000000 1024.000000"
 preserveAspectRatio="xMidYMid meet">

<g transform="translate(0.000000,1024.000000) scale(0.100000,-0.100000)"
fill="#000000" stroke="none">
<path d="M4715 8645 c-303 -43 -643 -156 -880 -292 -317 -183 -605 -484 -605
-633 0 -55 18 -65 72 -41 63 27 128 38 318 56 178 17 251 31 367 70 83 28 212
90 285 136 44 28 48 29 80 16 60 -25 64 -37 43 -138 -40 -201 0 -432 103 -590
56 -86 147 -173 216 -209 56 -28 72 -49 82 -105 16 -90 73 -159 127 -153 28 3
31 8 54 88 54 190 126 286 265 354 101 50 167 61 257 42 151 -32 278 -128 341
-261 38 -79 50 -143 50 -259 0 -160 -42 -282 -142 -410 -29 -38 -57 -74 -62
-80 -5 -7 2 -23 20 -42 16 -17 46 -67 68 -110 51 -104 86 -155 165 -238 73
-76 239 -214 288 -239 40 -21 97 -22 114 -1 15 19 70 119 105 194 14 30 33 63
41 72 17 19 50 80 150 280 170 340 217 529 215 873 -1 298 -43 480 -168 725
-110 215 -250 381 -444 526 -181 136 -400 245 -605 303 -118 33 -255 60 -363
71 -136 13 -444 11 -557 -5z"/>
<path d="M4125 7623 c-181 -67 -267 -85 -537 -109 l-188 -18 -9 -30 c-48 -148
-58 -394 -24 -551 16 -73 20 -110 14 -138 -9 -39 -96 -202 -210 -392 -111
-187 -130 -257 -92 -340 23 -52 70 -91 124 -105 112 -29 145 -41 161 -59 22
-24 35 -119 33 -236 -1 -82 2 -97 31 -158 34 -73 45 -125 62 -291 6 -59 20
-132 31 -162 29 -78 105 -157 177 -185 111 -43 307 -21 546 61 63 22 120 40
126 40 24 0 34 -90 33 -317 0 -128 1 -233 3 -233 2 0 52 23 111 51 215 102
390 182 478 219 403 168 784 259 1039 247 l108 -5 -7 257 c-8 294 -1 272 -115
346 -218 140 -420 376 -472 551 l-23 75 -40 -8 c-22 -4 -65 -8 -95 -8 l-55 0
-3 39 c-5 64 5 84 69 131 142 104 219 201 253 316 33 110 12 285 -40 341 -61
64 -167 94 -234 66 -57 -24 -135 -102 -159 -158 -12 -29 -30 -89 -41 -135 -23
-108 -50 -152 -108 -178 -62 -27 -157 -18 -261 25 -132 54 -163 89 -176 201
-7 58 -8 58 -64 90 -77 44 -195 158 -252 244 -84 129 -138 293 -140 430 -1 32
-4 68 -7 80 -7 21 -8 21 -47 6z"/>
<path d="M5780 4684 c-165 -23 -394 -81 -525 -133 -66 -27 -221 -95 -345 -151
-272 -123 -468 -207 -587 -251 -101 -37 -130 -54 -233 -136 -107 -85 -422
-401 -511 -513 -159 -199 -356 -516 -366 -588 -7 -51 13 -92 90 -188 164 -202
471 -459 702 -587 224 -124 605 -254 845 -288 110 -16 454 -16 550 -1 115 19
362 79 485 119 131 42 339 139 456 213 95 60 289 204 333 247 16 15 62 57 102
93 154 138 429 483 449 562 4 16 -3 53 -20 99 -15 41 -49 139 -75 219 -126
374 -300 682 -561 995 -160 191 -246 281 -283 295 -39 15 -382 11 -506 -6z"/>
</g>
</svg>
