<?xml version="1.0" standalone="no"?>
<!DOCTYPE svg PUBLIC "-//W3C//DTD SVG 20010904//EN"
 "http://www.w3.org/TR/2001/REC-SVG-20010904/DTD/svg10.dtd">
<svg version="1.0" xmlns="http://www.w3.org/2000/svg"
 width="1024.000000pt" height="1024.000000pt" viewBox="0 0 1024.000000 1024.000000"
 preserveAspectRatio="xMidYMid meet">

<g transform="translate(0.000000,1024.000000) scale(0.100000,-0.100000)"
fill="#000000" stroke="none">
<path d="M5073 8499 c-35 -10 -45 -19 -219 -199 -133 -138 -892 -882 -1019
-1000 -44 -41 -98 -94 -120 -118 -21 -24 -307 -305 -634 -625 -328 -320 -620
-607 -650 -637 -29 -30 -116 -118 -192 -196 -180 -182 -178 -167 -26 -318 112
-112 228 -206 252 -206 7 0 185 174 396 386 211 212 433 434 492 493 60 58
177 174 261 256 235 231 837 816 971 945 66 63 212 202 323 309 l202 193 43
-37 c23 -21 608 -602 1300 -1291 982 -979 1263 -1254 1282 -1254 18 0 67 40
180 147 86 80 162 158 170 172 11 22 11 32 -1 61 -10 22 -148 165 -387 399
-205 200 -522 515 -705 700 -664 669 -825 830 -1049 1048 -125 122 -354 346
-508 497 -153 152 -285 276 -291 276 -7 0 -18 2 -26 4 -7 2 -27 0 -45 -5z"/>
<path d="M6078 8130 c-63 -4 -91 -10 -106 -23 -40 -36 -35 -55 31 -115 34 -31
160 -151 280 -267 121 -115 254 -240 296 -276 82 -72 231 -223 273 -279 15
-19 30 -31 34 -28 3 4 9 205 12 447 4 339 2 446 -8 470 -21 52 -48 62 -183 67
-229 7 -542 10 -629 4z"/>
<path d="M4989 7326 c-63 -61 -184 -174 -269 -251 -85 -77 -192 -178 -240
-225 -47 -47 -226 -220 -398 -385 -415 -397 -631 -609 -555 -543 132 114 279
252 558 523 160 154 337 325 395 379 58 54 156 146 219 204 63 59 170 159 236
223 67 64 134 125 149 134 l27 18 87 -84 c253 -244 312 -298 327 -299 15 0
-82 95 -170 168 -103 85 -190 168 -224 213 l-27 37 -115 -112z"/>
<path d="M5920 6637 c0 -6 59 -62 160 -153 30 -27 46 -38 35 -25 -26 31 -195
185 -195 178z"/>
<path d="M3050 5452 c-113 -114 -229 -223 -258 -242 l-51 -35 -1 -1058 c0
-1177 -5 -1089 71 -1172 48 -52 86 -75 144 -86 22 -5 992 -8 2155 -9 2403 0
2183 -9 2277 86 30 29 60 69 69 89 12 30 14 181 14 1085 l-1 1049 -42 33 c-23
18 -138 126 -255 241 -117 115 -215 207 -218 204 -8 -7 -5 -1914 2 -2102 l7
-160 -492 -2 -491 -2 0 1059 c0 707 -3 1061 -10 1065 -9 6 -469 8 -1419 6
l-334 -1 4 -1062 4 -1062 -488 -1 -489 0 4 1143 c1 628 3 1142 3 1142 0 -1
-92 -94 -205 -208z m2444 -679 c4 -126 6 -491 6 -813 l-1 -585 -388 -2 -388
-3 -6 128 c-9 160 -9 1449 -1 1480 l6 22 383 0 382 0 7 -227z"/>
</g>
</svg>
