<?xml version="1.0" standalone="no"?>
<!DOCTYPE svg PUBLIC "-//W3C//DTD SVG 20010904//EN"
 "http://www.w3.org/TR/2001/REC-SVG-20010904/DTD/svg10.dtd">
<svg version="1.0" xmlns="http://www.w3.org/2000/svg"
 width="1024.000000pt" height="1024.000000pt" viewBox="0 0 1024.000000 1024.000000"
 preserveAspectRatio="xMidYMid meet">

<g transform="translate(0.000000,1024.000000) scale(0.100000,-0.100000)"
fill="#000000" stroke="none">
<path d="M5320 8926 c-103 -22 -214 -104 -254 -189 -49 -105 -42 -233 21 -348
23 -43 25 -54 17 -96 -5 -26 -9 -273 -9 -548 l1 -501 -141 -2 c-77 -1 -162 -5
-190 -8 -27 -3 -72 -1 -98 4 l-48 10 -62 -72 c-34 -39 -79 -88 -100 -108 l-38
-38 112 -125 c62 -68 125 -143 140 -166 l27 -42 146 2 146 2 1 -73 c3 -270 -5
-2679 -10 -3008 -5 -288 -3 -422 5 -465 42 -220 343 -1101 385 -1128 23 -14
62 -2 78 25 34 54 235 648 317 938 55 192 65 235 58 255 -6 18 -23 3435 -18
3443 1 2 66 4 143 5 l140 2 20 35 c26 46 86 118 172 207 61 63 85 103 61 103
-4 0 -43 45 -87 100 l-78 100 -136 0 c-75 0 -180 3 -233 7 l-98 6 0 487 c0
400 -3 495 -15 536 l-15 50 51 99 c49 96 51 102 47 170 -4 86 -38 164 -99 230
-55 60 -110 91 -183 104 -73 13 -105 13 -176 -3z m129 -186 c44 -12 97 -64
112 -107 17 -53 3 -98 -45 -148 -41 -43 -45 -45 -101 -45 -75 0 -120 27 -147
88 -36 80 -1 174 77 208 37 16 60 17 104 4z m-28 -500 l69 0 0 -44 0 -45 -47
-6 c-27 -4 -64 -11 -83 -16 -49 -13 -50 -12 -50 19 0 60 12 103 27 98 8 -4 46
-6 84 -6z m79 -333 l0 -54 -77 -16 c-43 -9 -88 -19 -100 -23 -22 -6 -23 -4
-23 48 l0 55 93 20 c50 11 95 21 100 22 4 0 7 -23 7 -52z m-5 -297 c0 -47 -2
-50 -25 -50 -14 0 -55 -9 -92 -19 l-68 -18 0 42 0 43 88 25 c48 14 89 25 92
26 3 1 5 -21 5 -49z m5 -305 l0 -45 -42 0 c-24 0 -67 -3 -95 -6 l-53 -7 0 36
c0 35 1 36 48 42 26 4 61 11 77 15 60 16 65 14 65 -35z m381 -253 c145 -6 170
-9 188 -26 l22 -20 -53 -53 -52 -53 -586 0 -586 0 -58 56 -59 57 24 18 c21 16
49 19 219 21 379 6 777 6 941 0z m-291 -2078 l0 -1735 -30 -162 c-17 -89 -37
-182 -45 -207 -8 -25 -35 -121 -60 -214 -25 -92 -49 -175 -54 -183 -5 -10 -12
5 -20 48 -7 35 -26 105 -41 154 -124 389 -146 508 -145 765 1 107 2 885 3
1728 l2 1533 118 -6 c94 -5 188 0 265 14 4 0 7 -780 7 -1735z"/>
<path d="M4879 8416 c-2 -2 -49 -16 -104 -30 -332 -88 -810 -329 -1070 -542
-330 -269 -563 -543 -752 -884 -422 -763 -473 -1652 -138 -2435 120 -282 276
-520 518 -793 270 -304 676 -586 1105 -766 244 -103 496 -167 479 -122 -25 65
-79 252 -87 300 -5 34 -10 187 -10 341 0 154 -4 285 -8 291 -5 7 -107 13 -307
18 -322 7 -400 16 -491 61 -103 50 -193 153 -236 270 -20 56 -22 79 -24 323
-1 232 0 264 14 270 9 3 67 1 130 -6 98 -10 117 -9 137 4 34 22 46 62 43 140
-4 97 1 95 -288 93 l-235 -2 -7 69 c-4 38 -4 93 -1 122 l5 52 47 1 c25 1 138
5 251 8 l205 6 3 45 c5 67 -7 129 -29 151 -16 16 -34 19 -131 19 -62 0 -119 4
-127 9 -10 7 -13 62 -15 267 l-1 259 28 77 c18 49 44 94 70 124 51 58 146 121
206 137 l44 12 -6 324 c-7 449 9 570 104 756 85 165 179 275 339 394 103 76
185 118 311 155 l94 29 0 127 c0 110 3 131 18 148 18 20 18 21 -12 63 -17 23
-36 59 -41 81 -10 34 -19 45 -31 34z"/>
<path d="M5906 8378 c-3 -13 -21 -47 -41 -77 l-36 -54 17 -44 c14 -35 16 -63
11 -142 l-6 -97 72 -17 c172 -41 389 -187 541 -364 82 -96 155 -239 193 -378
27 -99 27 -102 31 -505 l3 -406 23 -2 c39 -3 68 -18 134 -67 117 -88 169 -197
182 -385 9 -118 2 -378 -10 -385 -3 -2 -56 -7 -118 -11 -100 -6 -113 -9 -134
-31 -20 -22 -23 -35 -23 -108 0 -46 4 -87 8 -92 5 -4 109 -9 232 -11 l222 -3
5 -97 c3 -53 3 -113 0 -134 -4 -35 -5 -36 -35 -27 -44 14 -399 23 -415 11 -8
-5 -16 -37 -19 -70 -9 -101 24 -183 73 -183 11 -1 65 3 121 7 133 9 135 8 117
-52 -9 -29 -14 -94 -14 -173 -1 -214 -14 -323 -46 -389 -52 -107 -167 -207
-299 -259 l-70 -28 -335 0 c-217 0 -335 -4 -335 -10 0 -5 4 -145 8 -311 9
-325 7 -349 -51 -529 -11 -33 -23 -75 -27 -94 -6 -30 -5 -33 11 -27 11 4 61
16 113 27 291 60 704 267 1057 530 301 225 632 633 815 1004 139 283 243 648
269 940 24 285 8 590 -46 854 -51 252 -193 624 -325 846 -62 105 -213 317
-299 420 -94 112 -283 300 -382 380 -287 231 -663 422 -1043 531 -65 19 -124
34 -131 34 -7 0 -14 -10 -18 -22z"/>
<path d="M4854 7501 c-67 -31 -134 -85 -134 -107 0 -11 23 -14 110 -14 l110 0
0 75 c0 53 -4 75 -12 75 -7 0 -40 -13 -74 -29z"/>
<path d="M5870 7442 l0 -59 115 0 116 0 -23 24 c-27 29 -156 93 -187 93 -19 0
-21 -5 -21 -58z"/>
<path d="M6241 6670 c-85 -110 -94 -115 -211 -115 l-95 0 -7 -129 c-4 -72 -6
-130 -5 -130 1 -1 91 0 200 2 l197 3 0 219 c0 120 -4 221 -9 224 -4 3 -36 -30
-70 -74z"/>
<path d="M4457 6733 c-2 -4 -2 -105 1 -223 l4 -215 198 0 c109 0 200 2 202 5
2 3 2 63 0 134 l-4 129 -103 -6 -104 -6 -24 33 c-34 44 -164 159 -170 149z"/>
<path d="M4204 5956 c-114 -51 -151 -156 -94 -266 70 -136 238 -137 317 -2 35
60 37 142 5 194 -41 66 -160 105 -228 74z"/>
<path d="M6430 5950 c-127 -67 -141 -198 -34 -308 l53 -55 59 5 c80 6 132 41
168 114 48 99 18 206 -69 248 -47 22 -133 20 -177 -4z"/>
<path d="M6456 4515 c-85 -30 -127 -80 -134 -159 -5 -68 21 -128 79 -180 35
-32 45 -36 93 -36 92 0 150 36 187 115 54 116 -3 239 -121 264 -61 13 -56 13
-104 -4z"/>
<path d="M4185 4501 c-77 -35 -115 -106 -102 -188 8 -49 55 -123 96 -150 72
-49 188 -17 246 65 26 38 30 53 30 110 0 52 -5 75 -23 104 -44 71 -160 99
-247 59z"/>
</g>
</svg>
