<?xml version="1.0" standalone="no"?>
<!DOCTYPE svg PUBLIC "-//W3C//DTD SVG 20010904//EN"
 "http://www.w3.org/TR/2001/REC-SVG-20010904/DTD/svg10.dtd">
<svg version="1.0" xmlns="http://www.w3.org/2000/svg"
 width="1024.000000pt" height="1024.000000pt" viewBox="0 0 1024.000000 1024.000000"
 preserveAspectRatio="xMidYMid meet">

<g transform="translate(0.000000,1024.000000) scale(0.100000,-0.100000)"
fill="#000000" stroke="none">
<path d="M5115 8600 c-324 -35 -660 -242 -849 -523 -66 -99 -104 -183 -143
-318 -26 -90 -27 -104 -28 -349 -1 -246 -2 -256 -24 -290 -48 -76 -10 -199 81
-256 106 -67 264 10 285 139 8 53 -3 83 -49 133 l-41 45 7 182 c3 100 14 227
22 281 31 195 146 379 314 504 76 56 250 137 337 156 118 26 280 22 388 -9
217 -63 388 -191 499 -375 95 -157 131 -307 142 -597 6 -149 5 -173 -8 -173
-23 0 -55 -41 -67 -85 -21 -80 25 -177 101 -214 51 -24 117 -27 156 -7 64 34
132 131 132 189 0 13 -13 44 -30 70 l-30 48 0 213 c0 229 -10 310 -56 466 -63
208 -227 433 -416 571 -202 146 -486 224 -723 199z"/>
<path d="M3233 7361 c-59 -7 -97 -36 -112 -85 -5 -17 -17 -137 -26 -266 -9
-129 -20 -262 -25 -295 -5 -33 -16 -141 -25 -240 -9 -99 -24 -252 -35 -340
-10 -88 -35 -329 -55 -535 -19 -206 -47 -485 -60 -620 -14 -135 -32 -321 -40
-415 -8 -93 -22 -233 -30 -310 -14 -131 -34 -351 -70 -765 -9 -96 -19 -204
-24 -240 -5 -36 -8 -66 -7 -67 2 -2 315 340 394 430 34 40 68 86 76 102 17 37
63 578 76 910 16 373 28 573 35 585 8 13 172 13 180 0 6 -10 -18 -672 -36
-960 -23 -379 -24 -407 -2 -414 29 -9 3390 -11 3441 -2 l42 8 0 658 c0 361 3
671 6 687 6 29 7 30 42 21 21 -5 47 -12 59 -15 47 -11 58 -110 73 -663 13
-450 36 -791 57 -837 9 -18 95 -108 192 -200 97 -92 209 -199 249 -237 l73
-71 -5 35 c-6 30 -39 392 -76 830 -6 69 -20 206 -30 305 -19 184 -38 373 -66
665 -8 91 -46 446 -84 790 -100 910 -118 1086 -135 1277 -8 95 -21 188 -29
207 -28 66 -26 66 -378 66 l-318 0 0 -87 c1 -61 7 -105 20 -143 25 -72 25
-141 -1 -221 -28 -85 -60 -139 -119 -198 -167 -167 -440 -158 -604 20 -76 81
-119 192 -120 304 -1 69 3 88 29 140 22 46 29 75 30 122 l0 62 -425 3 c-234 2
-503 2 -597 0 l-173 -3 0 -64 c0 -49 6 -77 29 -125 54 -114 50 -210 -14 -346
-83 -172 -275 -266 -455 -220 -226 58 -379 290 -341 517 6 37 11 106 11 153
l0 86 -214 0 c-117 0 -240 2 -272 4 -32 2 -82 1 -111 -3z m253 -1541 c26 -10
27 -12 20 -73 -11 -114 -34 -269 -40 -274 -10 -11 -113 -16 -119 -6 -13 20
-20 309 -8 330 15 29 97 42 147 23z"/>
<path d="M3674 3611 c-217 -6 -221 -6 -260 -32 -21 -14 -160 -145 -309 -290
-148 -145 -295 -285 -325 -312 l-55 -47 2430 1 c1337 0 2449 -3 2473 -7 61
-10 55 13 -16 63 -114 80 -260 211 -462 413 l-204 205 -151 1 c-705 6 -2946 9
-3121 5z"/>
<path d="M4325 2190 c-88 -4 -200 -13 -250 -19 -137 -16 -254 -29 -430 -46
-251 -25 -382 -47 -460 -77 -76 -29 -88 -76 -27 -107 73 -37 230 -56 779 -96
818 -59 1790 -60 2508 -5 609 48 774 72 828 120 30 27 31 28 14 53 -34 52
-145 77 -548 122 -514 57 -499 57 -1404 60 -467 2 -922 -1 -1010 -5z"/>
</g>
</svg>
