<?xml version="1.0" standalone="no"?>
<!DOCTYPE svg PUBLIC "-//W3C//DTD SVG 20010904//EN"
 "http://www.w3.org/TR/2001/REC-SVG-20010904/DTD/svg10.dtd">
<svg version="1.0" xmlns="http://www.w3.org/2000/svg"
 width="1024.000000pt" height="1024.000000pt" viewBox="0 0 1024.000000 1024.000000"
 preserveAspectRatio="xMidYMid meet">

<g transform="translate(0.000000,1024.000000) scale(0.100000,-0.100000)"
fill="#000000" stroke="none">
<path d="M5080 8740 c-432 -6 -413 -2 -487 -83 -65 -71 -67 -83 -69 -441 l-2
-320 -74 -17 c-40 -10 -114 -33 -163 -52 -122 -47 -360 -167 -417 -211 -26
-19 -48 -31 -50 -27 -2 5 -111 121 -242 259 -264 277 -274 284 -385 284 -128
-1 -145 -10 -278 -145 -221 -225 -430 -452 -449 -487 -30 -56 -26 -161 8 -230
36 -73 440 -506 487 -521 10 -4 6 -15 -14 -44 -53 -78 -141 -271 -190 -419
-10 -30 -55 -200 -55 -210 0 0 -154 -2 -343 -4 -387 -2 -405 -5 -478 -76 -23
-21 -53 -64 -68 -95 l-26 -56 2 -363 c2 -362 2 -364 27 -417 31 -67 94 -131
143 -144 21 -6 193 -12 390 -13 l352 -3 6 -30 c20 -101 146 -427 201 -521 13
-22 35 -50 48 -63 l24 -22 -52 -56 c-28 -31 -139 -148 -248 -260 -108 -112
-204 -221 -215 -241 -28 -57 -26 -211 5 -273 15 -31 109 -134 290 -316 293
-298 292 -297 412 -297 48 0 77 6 110 23 50 25 531 507 552 552 l12 26 70 -46
c83 -54 401 -184 526 -215 l85 -21 0 -365 c0 -353 1 -367 22 -412 11 -25 40
-67 63 -92 68 -74 83 -76 515 -76 l371 0 52 26 c61 30 106 79 140 152 l24 53
-3 360 -4 359 21 0 c67 0 368 111 549 204 55 28 102 51 105 51 3 0 117 -116
255 -258 137 -143 269 -270 292 -284 59 -34 143 -41 219 -18 56 18 71 30 327
284 314 311 322 323 321 451 -1 138 1 135 -334 477 l-208 211 30 44 c77 113
194 377 234 528 l17 65 348 -3 c400 -3 387 -6 476 85 84 85 84 91 81 510 l-3
358 -28 53 c-37 70 -89 126 -141 151 -40 20 -59 21 -388 21 l-345 0 -7 41
c-21 130 -150 451 -228 566 l-36 52 37 34 c139 130 460 469 476 502 14 29 20
61 20 115 0 79 -13 115 -62 175 -51 63 -519 528 -544 541 -65 33 -200 33 -271
0 -33 -16 -180 -160 -411 -404 -59 -62 -107 -109 -107 -103 0 12 -163 105
-296 167 -101 48 -295 118 -359 130 l-35 6 0 307 c0 296 -1 308 -24 362 -12
31 -33 70 -45 88 -27 38 -94 77 -141 82 -19 2 -208 2 -420 -1z m310 -1285
c244 -40 395 -88 601 -190 393 -197 770 -595 937 -990 127 -302 172 -552 152
-850 -15 -222 -40 -346 -112 -545 -71 -198 -226 -450 -396 -645 -157 -181
-480 -401 -737 -503 -228 -90 -380 -122 -620 -129 -279 -8 -452 16 -714 99
-179 57 -271 102 -466 227 -149 96 -353 279 -468 421 -186 231 -294 457 -369
775 -28 119 -31 149 -35 351 -4 192 -2 239 17 363 78 517 356 950 826 1288
245 176 578 305 864 336 104 11 432 6 520 -8z"/>
<path d="M5070 7203 c-207 -8 -411 -53 -605 -133 -509 -208 -934 -741 -1021
-1280 -18 -112 -20 -373 -4 -492 14 -103 70 -297 115 -402 99 -228 319 -517
495 -650 92 -70 260 -172 355 -216 112 -52 320 -115 445 -136 115 -20 369 -22
489 -5 207 30 412 100 596 203 251 141 358 236 537 474 153 204 271 469 315
708 26 139 24 417 -5 564 -42 212 -123 397 -258 596 -183 267 -352 421 -628
575 -241 134 -545 205 -826 194z m175 -421 c73 -37 81 -50 235 -392 50 -113
98 -214 105 -226 11 -18 27 -22 99 -28 245 -18 524 -65 587 -97 83 -42 126
-131 117 -242 -9 -103 -28 -128 -240 -315 -106 -93 -215 -189 -241 -213 l-48
-44 31 -115 c17 -63 42 -149 55 -190 64 -196 76 -321 38 -395 -54 -104 -112
-139 -228 -140 -78 0 -83 2 -210 63 -71 35 -196 101 -277 148 l-148 85 -46
-20 c-25 -12 -71 -36 -102 -55 -32 -18 -142 -77 -246 -130 -182 -93 -190 -96
-255 -96 -77 0 -131 21 -179 70 -90 89 -92 164 -13 480 11 47 32 132 46 190
l25 105 -58 53 c-31 30 -126 112 -210 184 -83 71 -163 144 -177 162 -66 86
-90 205 -61 294 21 62 76 114 145 136 59 20 280 59 446 81 72 9 144 18 161 21
28 4 35 13 67 82 19 42 61 131 93 197 31 66 68 144 82 173 32 68 75 127 108
149 85 55 219 67 299 25z"/>
<path d="M5065 6039 c-11 -11 -40 -82 -65 -157 l-46 -137 -139 -7 c-77 -4
-154 -10 -172 -13 -34 -6 -73 -46 -73 -76 0 -29 46 -75 139 -139 47 -33 96
-69 109 -80 l23 -19 -41 -152 c-23 -83 -40 -163 -38 -177 2 -14 15 -34 29 -44
33 -25 41 -21 202 96 65 47 120 86 122 86 3 0 66 -45 141 -100 75 -55 145
-100 155 -100 26 0 59 39 59 69 0 14 -21 93 -47 175 l-47 149 24 19 c14 10 68
47 120 81 104 68 139 112 126 160 -13 53 -44 62 -220 64 l-160 1 -22 89 c-32
124 -62 200 -87 218 -30 21 -71 19 -92 -6z"/>
<path d="M7774 2955 c-132 -79 -136 -227 -8 -313 78 -53 181 -102 213 -102 48
0 149 95 177 167 14 35 14 48 4 72 -16 39 -134 153 -187 180 -60 30 -145 29
-199 -4z"/>
<path d="M2275 2958 c-49 -18 -139 -84 -184 -134 -34 -39 -41 -54 -41 -88 1
-51 14 -75 74 -136 52 -53 102 -76 143 -65 39 9 165 100 217 155 73 78 73 121
3 197 -67 73 -139 97 -212 71z"/>
<path d="M5073 1981 c-92 -23 -127 -89 -121 -221 6 -138 51 -190 163 -190 64
0 96 14 142 62 42 43 53 76 53 152 0 77 -37 159 -82 182 -36 19 -112 26 -155
15z"/>
</g>
</svg>
